<svg width="343" height="396" viewBox="0 0 343 396" fill="none" xmlns="http://www.w3.org/2000/svg">
<path d="M44.2522 99.559C53.6068 145.7 106.17 175.117 132.117 190.891C40.457 203.272 -7.53328 115.928 0.964245 55.3226C1.42064 52.0675 5.91285 52.3957 9.10422 53.1824C35.7738 59.7564 82.556 71.8712 115.595 86.4725C145.206 99.559 166.093 133.269 171.309 150.549V395.861C150.551 396.555 66.6144 338.996 56.6076 332.073C18.659 305.82 4.88978 258.665 4.88978 233.337V160.829C4.88978 159.129 6.86685 158.217 8.16107 159.32C16.7001 166.597 38.9954 185.826 38.8424 188.086C33.1672 271.914 52.7541 299.696 127.48 335.708C139.979 341.731 156.882 335.708 157.561 316.806C158.937 278.543 157.561 210.292 157.561 195.974C149.59 142.623 132.939 110.521 44.2522 99.559Z" fill="#EFEFEF"/>
<path d="M298.366 99.559C289.012 145.7 236.449 175.117 210.502 190.891C302.161 203.272 350.152 115.928 341.654 55.3226C341.198 52.0675 336.706 52.3957 333.514 53.1824C306.845 59.7564 260.062 71.8712 227.024 86.4725C197.412 99.559 176.526 133.269 171.309 150.549V395.861C192.067 396.555 276.004 338.996 286.011 332.073C323.959 305.82 337.729 258.665 337.729 233.337V160.829C337.729 159.129 335.752 158.217 334.457 159.32C325.918 166.597 303.623 185.826 303.776 188.086C309.451 271.914 289.864 299.696 215.138 335.708C202.64 341.731 185.737 335.708 185.057 316.806C183.682 278.543 185.057 210.292 185.057 195.974C193.028 142.623 209.679 110.521 298.366 99.559Z" fill="#EFEFEF"/>
<path d="M199.738 290.877C195.188 263.321 219.71 207.956 279.879 220.09C291.087 262.079 233.615 301.748 199.738 290.877Z" fill="#EFEFEF"/>
<path d="M142.113 290.877C146.664 263.321 122.141 207.956 61.9723 220.09C50.7643 262.079 108.237 301.748 142.113 290.877Z" fill="#EFEFEF"/>
<path d="M171.377 0C175.03 10.417 181.457 21.1452 190.412 30.8193C202.012 43.3514 215.703 51.7887 228.568 55.3721L228.434 55.5049C215.384 58.7636 201.423 67.1285 189.692 79.8018C181.063 89.1235 174.853 99.4691 171.278 109.566C167.703 99.4692 161.494 89.1234 152.865 79.8018C140.349 66.2801 125.293 57.6644 111.514 54.9209C125.293 52.1774 140.349 43.5626 152.865 30.041C161.573 20.6341 167.818 10.1849 171.377 0Z" fill="#EFEFEF"/>
</svg>
