<svg width="449" height="449" viewBox="0 0 449 449" fill="none" xmlns="http://www.w3.org/2000/svg">
<path d="M197.528 46.5C209.459 25.8333 239.289 25.8333 251.221 46.5L391.841 290.062C403.773 310.728 388.858 336.561 364.995 336.561H83.754C59.8902 336.561 44.9753 310.728 56.9072 290.061L197.528 46.5Z" fill="#1D4D91"/>
<ellipse cx="171.097" cy="174.82" rx="44.8617" ry="68.9711" transform="rotate(5.09913 171.097 174.82)" fill="#D9D9D9"/>
<ellipse cx="277.652" cy="174.82" rx="44.8617" ry="68.9711" transform="rotate(-5.1 277.652 174.82)" fill="#D9D9D9"/>
<path d="M195.485 180.122C193.036 177.596 189.002 177.533 186.476 179.981L166.21 199.621L156.923 187.955C154.731 185.203 150.723 184.748 147.97 186.939C145.218 189.131 144.764 193.139 146.954 195.891L160.491 212.893C160.653 213.11 160.829 213.32 161.022 213.52C163.471 216.046 167.504 216.11 170.03 213.662L195.344 189.132C197.87 186.683 197.933 182.649 195.485 180.122Z" fill="#05BE49"/>
<path d="M303.903 180.122C301.455 177.596 297.42 177.533 294.894 179.981L274.628 199.621L265.341 187.955C263.149 185.203 259.141 184.748 256.388 186.939C253.636 189.131 253.182 193.139 255.373 195.891L268.909 212.893C269.071 213.11 269.247 213.32 269.44 213.52C271.889 216.046 275.922 216.11 278.448 213.662L303.762 189.132C306.288 186.683 306.352 182.649 303.903 180.122Z" fill="#05BE49"/>
</svg>
