<svg width="449" height="485" viewBox="0 0 449 485" fill="none" xmlns="http://www.w3.org/2000/svg">
<path d="M197.528 82.3562C209.459 61.6895 239.289 61.6895 251.221 82.3562L391.841 325.918C403.773 346.584 388.858 372.418 364.995 372.418H83.754C59.8902 372.418 44.9753 346.584 56.9072 325.918L197.528 82.3562Z" fill="#1D4D91"/>
<ellipse cx="171.097" cy="222.922" rx="44.8617" ry="68.9711" transform="rotate(-5.37711 171.097 222.922)" fill="#D9D9D9"/>
<ellipse cx="277.652" cy="222.922" rx="44.8617" ry="68.9711" transform="rotate(-5.1 277.652 222.922)" fill="#D9D9D9"/>
<ellipse cx="181.305" cy="209.58" rx="14.3463" ry="24.9303" fill="#202020"/>
<ellipse cx="283.799" cy="209.58" rx="14.3463" ry="24.9303" fill="#202020"/>
<path d="M321.253 121.735V119.782C321.291 113.081 321.884 107.74 323.033 103.758C324.22 99.7755 325.943 96.5592 328.202 94.1086C330.461 91.6581 333.18 89.4372 336.358 87.4462C338.732 85.9146 340.857 84.3255 342.733 82.679C344.609 81.0326 346.103 79.2138 347.213 77.2227C348.324 75.1933 348.879 72.9342 348.879 70.4454C348.879 67.8034 348.247 65.4868 346.983 63.4957C345.72 61.5047 344.016 59.9731 341.872 58.9009C339.766 57.8288 337.43 57.2928 334.865 57.2928C332.376 57.2928 330.021 57.848 327.8 58.9584C325.579 60.0305 323.761 61.6387 322.344 63.7829C320.927 65.8889 320.161 68.5117 320.046 71.6515H296.613C296.804 63.9935 298.642 57.6757 302.127 52.698C305.611 47.682 310.225 43.9487 315.969 41.4981C321.712 39.0093 328.049 37.7648 334.98 37.7648C342.599 37.7648 349.338 39.0284 355.197 41.5556C361.055 44.0444 365.65 47.6628 368.981 52.4108C372.312 57.1587 373.978 62.8831 373.978 69.5839C373.978 74.0638 373.231 78.046 371.738 81.5303C370.283 84.9765 368.234 88.0397 365.592 90.72C362.95 93.362 359.83 95.7551 356.23 97.8993C353.206 99.699 350.717 101.575 348.764 103.528C346.849 105.481 345.414 107.74 344.456 110.305C343.537 112.871 343.059 116.03 343.02 119.782V121.735H321.253ZM332.625 158.493C328.796 158.493 325.522 157.153 322.803 154.473C320.123 151.754 318.802 148.5 318.84 144.709C318.802 140.956 320.123 137.74 322.803 135.06C325.522 132.38 328.796 131.039 332.625 131.039C336.262 131.039 339.459 132.38 342.216 135.06C344.973 137.74 346.371 140.956 346.409 144.709C346.371 147.236 345.701 149.553 344.399 151.659C343.135 153.726 341.47 155.392 339.402 156.655C337.334 157.881 335.075 158.493 332.625 158.493Z" fill="#ED6C30"/>
</svg>
