<svg width="449" height="449" viewBox="0 0 449 449" fill="none" xmlns="http://www.w3.org/2000/svg">
<path d="M197.528 46.5C209.459 25.8333 239.289 25.8333 251.221 46.5L391.841 290.062C403.773 310.728 388.858 336.561 364.995 336.561H83.754C59.8902 336.561 44.9753 310.728 56.9072 290.061L197.528 46.5Z" fill="#1D4D91"/>
<ellipse cx="171.097" cy="187.066" rx="44.8617" ry="68.9711" transform="rotate(-5.37711 171.097 187.066)" fill="#D9D9D9"/>
<ellipse cx="277.652" cy="187.066" rx="44.8617" ry="68.9711" transform="rotate(-5.1 277.652 187.066)" fill="#D9D9D9"/>
<ellipse cx="181.305" cy="173.724" rx="14.3463" ry="24.9303" fill="#202020"/>
<ellipse cx="283.799" cy="173.724" rx="14.3463" ry="24.9303" fill="#202020"/>
<path d="M298.145 82.9785C293.543 82.9785 289.129 81.1501 285.874 77.8956C282.62 74.6411 280.791 70.227 280.791 65.6244C280.791 61.0217 282.62 56.6076 285.874 53.3531C289.129 50.0986 293.543 48.2702 298.145 48.2702C302.748 48.2702 307.162 50.0986 310.417 53.3531C313.671 56.6076 315.499 61.0217 315.499 65.6244C315.499 70.227 313.671 74.6411 310.417 77.8956C307.162 81.1501 302.748 82.9785 298.145 82.9785ZM334.986 70.4339C335.184 68.8473 335.333 67.2606 335.333 65.6244C335.333 63.9881 335.184 62.3519 334.986 60.666L345.448 52.5839C346.39 51.8402 346.638 50.5014 346.043 49.4106L336.126 32.2548C335.531 31.1639 334.192 30.7177 333.102 31.1639L320.755 36.1223C318.177 34.1885 315.499 32.5027 312.376 31.2631L310.541 18.1235C310.44 17.5395 310.136 17.01 309.682 16.6288C309.229 16.2477 308.655 16.0394 308.062 16.041H288.229C286.989 16.041 285.948 16.9335 285.749 18.1235L283.915 31.2631C280.791 32.5027 278.114 34.1885 275.535 36.1223L263.189 31.1639C262.098 30.7177 260.759 31.1639 260.164 32.2548L250.248 49.4106C249.603 50.5014 249.901 51.8402 250.843 52.5839L261.305 60.666C261.107 62.3519 260.958 63.9881 260.958 65.6244C260.958 67.2606 261.107 68.8473 261.305 70.4339L250.843 78.6648C249.901 79.4085 249.603 80.7473 250.248 81.8381L260.164 98.9939C260.759 100.085 262.098 100.481 263.189 100.085L275.535 95.0769C278.114 97.0602 280.791 98.746 283.915 99.9856L285.749 113.125C285.948 114.315 286.989 115.208 288.229 115.208H308.062C309.302 115.208 310.343 114.315 310.541 113.125L312.376 99.9856C315.499 98.6964 318.177 97.0602 320.755 95.0769L333.102 100.085C334.192 100.481 335.531 100.085 336.126 98.9939L346.043 81.8381C346.638 80.7473 346.39 79.4085 345.448 78.6648L334.986 70.4339Z" fill="#ED6C30"/>
</svg>
