<svg width="449" height="449" viewBox="0 0 449 449" fill="none" xmlns="http://www.w3.org/2000/svg">
<path d="M197.528 46.5C209.459 25.8333 239.289 25.8333 251.221 46.5L391.841 290.062C403.773 310.728 388.858 336.561 364.995 336.561H83.754C59.8902 336.561 44.9753 310.728 56.9072 290.061L197.528 46.5Z" fill="#1D4D91"/>
<ellipse cx="171.097" cy="174.82" rx="44.8617" ry="68.9711" transform="rotate(5.09913 171.097 174.82)" fill="#D9D9D9"/>
<ellipse cx="277.652" cy="174.82" rx="44.8617" ry="68.9711" transform="rotate(-5.1 277.652 174.82)" fill="#D9D9D9"/>
<path d="M156.618 172.142C159.384 169.969 163.389 170.449 165.563 173.215L172.262 181.741L180.585 174.789C183.285 172.533 187.302 172.894 189.558 175.594C191.813 178.293 191.453 182.31 188.754 184.566L180.137 191.765L187.477 201.105C189.651 203.872 189.169 207.877 186.403 210.051C183.636 212.224 179.632 211.744 177.459 208.977L170.356 199.937L161.535 207.308C158.835 209.564 154.818 209.204 152.562 206.505C150.306 203.805 150.666 199.787 153.366 197.531L162.48 189.915L155.545 181.087C153.371 178.32 153.852 174.316 156.618 172.142Z" fill="#ED6C30"/>
<path d="M292.131 172.142C289.365 169.969 285.359 170.448 283.186 173.214L276.486 181.741L268.164 174.789C265.464 172.533 261.446 172.894 259.19 175.593C256.935 178.293 257.296 182.31 259.995 184.566L268.611 191.764L261.271 201.105C259.098 203.872 259.579 207.877 262.346 210.05C265.112 212.223 269.116 211.743 271.29 208.977L278.393 199.937L287.214 207.308C289.914 209.564 293.931 209.204 296.187 206.505C298.442 203.805 298.083 199.787 295.383 197.531L286.269 189.915L293.204 181.087C295.377 178.32 294.897 174.316 292.131 172.142Z" fill="#ED6C30"/>
</svg>
