<svg width="449" height="449" viewBox="0 0 449 449" fill="none" xmlns="http://www.w3.org/2000/svg">
<path d="M197.528 46.5C209.459 25.8333 239.289 25.8333 251.221 46.5L391.841 290.062C403.773 310.728 388.858 336.561 364.995 336.561H83.754C59.8902 336.561 44.9753 310.728 56.9072 290.061L197.528 46.5Z" fill="#1D4D91"/>
<ellipse cx="171.097" cy="174.82" rx="44.8617" ry="68.9711" transform="rotate(5.09913 171.097 174.82)" fill="#D9D9D9"/>
<ellipse cx="277.652" cy="174.82" rx="44.8617" ry="68.9711" transform="rotate(-5.1 277.652 174.82)" fill="#D9D9D9"/>
<path d="M192.445 173.699C189.834 174.267 187.582 175.724 186.526 178.236C185.891 179.76 185.002 183.698 182.564 182.68C181.397 182.198 181.416 180.526 181.552 179.483C181.842 177.341 182.805 175.384 183.465 173.348C184.144 171.237 184.73 169.114 185.15 166.929C186.557 159.695 186.168 151.363 181.052 145.58C180.188 144.593 178.009 142.309 176.571 142.26C175.682 142.235 176.559 143.284 176.806 143.636C177.305 144.358 177.725 145.142 178.046 145.963C181.829 155.616 172.504 162.967 166.375 168.688C163.437 171.434 161.092 174.348 158.981 177.748C158.771 178.075 158.308 179.174 157.71 178.946C157 178.674 156.926 177.051 156.704 176.446C156.284 175.286 155.636 174.02 154.803 173.113C153.192 171.348 150.939 170.157 148.501 170.317C148.409 170.323 148.143 170.367 147.816 170.441C147.304 170.552 145.934 170.731 146.304 171.558C146.495 171.984 147.057 171.947 147.458 172.064C152.606 173.644 152.488 179.038 151.655 183.371C150.149 191.258 145.977 198.714 148.94 206.824C152.433 216.384 163.369 222.352 173.294 220.711C176.003 220.266 179.126 219.39 181.558 218.081C184.144 216.687 186.977 214.779 188.995 212.632C191.593 209.873 193.247 206.336 193.735 202.59C194.309 198.257 192.926 194.172 191.667 190.08C190.149 185.142 188.402 177.082 194.71 174.668C195.019 174.545 195.636 174.452 195.852 174.125C196.654 172.928 192.803 173.625 192.445 173.699Z" fill="#ED6C30"/>
<path d="M173.646 207.589C174.954 208.688 176.787 208.151 178.021 207.213C178.682 206.713 179.25 206.071 179.62 205.324C179.774 205.003 179.953 204.596 179.953 204.232C179.953 203.744 179.663 203.263 179.787 202.763C180.823 202.559 182.107 205.54 182.237 206.232C183.274 211.681 178.139 216.175 173.183 217.045C164.82 218.508 160.012 211.181 160.975 204.676C161.573 200.628 164.289 197.844 167.054 195.067C169.344 192.765 171.467 190.79 172.208 187.796C172.337 187.265 172.306 186.451 172.152 185.926C172.022 185.476 171.775 185.062 171.763 184.575C171.726 183.55 172.72 184.889 172.948 185.149C175.701 188.253 176.485 192.839 175.75 196.85C175.275 199.443 173.423 201.294 172.775 203.775C172.399 205.189 172.436 206.565 173.646 207.589Z" fill="#FCC21B"/>
<path d="M299.001 173.699C296.39 174.267 294.137 175.724 293.082 178.236C292.446 179.76 291.557 183.698 289.119 182.68C287.953 182.198 287.972 180.526 288.107 179.483C288.397 177.341 289.36 175.384 290.021 173.348C290.699 171.237 291.286 169.114 291.706 166.929C293.113 159.695 292.724 151.363 287.607 145.58C286.743 144.593 284.565 142.309 283.127 142.26C282.238 142.235 283.114 143.284 283.361 143.636C283.861 144.358 284.281 145.142 284.602 145.963C288.385 155.616 279.059 162.967 272.931 168.688C269.993 171.434 267.648 174.348 265.537 177.748C265.327 178.075 264.864 179.174 264.265 178.946C263.556 178.674 263.482 177.051 263.259 176.446C262.84 175.286 262.192 174.02 261.358 173.113C259.748 171.348 257.495 170.157 255.057 170.317C254.964 170.323 254.699 170.367 254.372 170.441C253.86 170.552 252.489 170.731 252.86 171.558C253.051 171.984 253.613 171.947 254.014 172.064C259.161 173.644 259.044 179.038 258.211 183.371C256.705 191.258 252.533 198.714 255.495 206.824C258.988 216.384 269.925 222.352 279.849 220.711C282.559 220.266 285.682 219.39 288.113 218.081C290.699 216.687 293.532 214.779 295.551 212.632C298.149 209.873 299.803 206.336 300.291 202.59C300.865 198.257 299.482 194.172 298.223 190.08C296.705 185.142 294.958 177.082 301.266 174.668C301.574 174.545 302.192 174.452 302.408 174.125C303.21 172.928 299.359 173.625 299.001 173.699Z" fill="#ED6C30"/>
<path d="M280.201 207.589C281.51 208.688 283.343 208.151 284.577 207.213C285.237 206.713 285.805 206.071 286.176 205.324C286.33 205.003 286.509 204.596 286.509 204.232C286.509 203.744 286.219 203.263 286.342 202.763C287.379 202.559 288.663 205.54 288.792 206.232C289.829 211.681 284.694 216.175 279.738 217.045C271.375 218.508 266.567 211.181 267.53 204.676C268.129 200.628 270.845 197.844 273.61 195.067C275.899 192.765 278.022 190.79 278.763 187.796C278.893 187.265 278.862 186.451 278.708 185.926C278.578 185.476 278.331 185.062 278.319 184.575C278.282 183.55 279.275 184.889 279.504 185.149C282.256 188.253 283.04 192.839 282.306 196.85C281.831 199.443 279.979 201.294 279.331 203.775C278.954 205.189 278.991 206.565 280.201 207.589Z" fill="#FCC21B"/>
</svg>
