<svg width="449" height="449" viewBox="0 0 449 449" fill="none" xmlns="http://www.w3.org/2000/svg">
<path d="M197.528 46.5C209.459 25.8333 239.289 25.8333 251.221 46.5L391.841 290.062C403.773 310.728 388.858 336.561 364.995 336.561H83.754C59.8902 336.561 44.9753 310.728 56.9072 290.061L197.528 46.5Z" fill="#1D4D91"/>
<ellipse cx="280.976" cy="174.418" rx="49.3878" ry="68.9711" transform="rotate(8.74792 280.976 174.418)" fill="#D9D9D9"/>
<ellipse cx="49.3878" cy="68.9711" rx="49.3878" ry="68.9711" transform="matrix(-0.988367 0.152088 0.152088 0.988367 206.097 98.738)" fill="#D9D9D9"/>
<path d="M196.902 204.614C195.484 218.309 189.905 188.766 179.364 187.674C168.822 186.583 157.308 214.356 158.726 200.661C160.145 186.965 169.84 176.748 180.382 177.84C190.924 178.931 198.32 190.919 196.902 204.614Z" fill="#202020"/>
<path d="M251.847 204.614C253.265 218.309 258.843 188.766 269.385 187.674C279.927 186.583 291.44 214.356 290.022 200.661C288.604 186.965 278.908 176.748 268.366 177.84C257.825 178.931 250.428 190.919 251.847 204.614Z" fill="#202020"/>
</svg>
